<svg width="32" height="32" viewBox="0 0 32 32" fill="none" xmlns="http://www.w3.org/2000/svg">
<g clip-path="url(#clip0_49_13)">
<path d="M27.9998 4C28.3535 4 28.6926 4.14048 28.9426 4.39052C29.1927 4.64057 29.3332 4.97971 29.3332 5.33333V12.6667C28.4491 12.6667 27.6013 13.0179 26.9761 13.643C26.351 14.2681 25.9998 15.1159 25.9998 16C25.9998 16.8841 26.351 17.7319 26.9761 18.357C27.6013 18.9821 28.4491 19.3333 29.3332 19.3333V26.6667C29.3332 27.0203 29.1927 27.3594 28.9426 27.6095C28.6926 27.8595 28.3535 28 27.9998 28H3.99984C3.64622 28 3.30708 27.8595 3.05703 27.6095C2.80698 27.3594 2.6665 27.0203 2.6665 26.6667V19.3333C3.55056 19.3333 4.39841 18.9821 5.02353 18.357C5.64865 17.7319 5.99984 16.8841 5.99984 16C5.99984 15.1159 5.64865 14.2681 5.02353 13.643C4.39841 13.0179 3.55056 12.6667 2.6665 12.6667V5.33333C2.6665 4.97971 2.80698 4.64057 3.05703 4.39052C3.30708 4.14048 3.64622 4 3.99984 4H27.9998ZM21.3332 12H10.6665V20H21.3332V12Z" fill="#0059F7"/>
</g>
<defs>
<clipPath id="clip0_49_13">
<rect width="32" height="32" fill="white"/>
</clipPath>
</defs>
</svg>
